<svg width="0" height="0" class="hidden">
  <symbol xmlns="http://www.w3.org/2000/svg" viewBox="0 0 28 28" id="pint">
    <path d="M14 0.666992C6.65699 0.693992 0.713989 6.65299 0.713989 14C0.713989 19.599 4.16599 24.393 9.05699 26.368L9.14599 26.4C9.01299 25.347 8.91899 23.733 9.18599 22.573L10.746 15.946C10.746 15.946 10.346 15.146 10.346 13.973C10.346 12.12 11.426 10.746 12.773 10.746C13.906 10.746 14.466 11.599 14.466 12.613C14.466 13.76 13.733 15.466 13.346 17.053C13.026 18.386 14.013 19.466 15.333 19.466C17.706 19.466 19.52 16.973 19.52 13.373C19.52 10.173 17.227 7.95999 13.947 7.95999C13.871 7.95599 13.783 7.95399 13.694 7.95399C10.505 7.95399 7.92099 10.539 7.92099 13.727C7.92099 13.729 7.92099 13.731 7.92099 13.733C7.92099 14.88 8.36099 16.106 8.90799 16.773C9.01499 16.906 9.02799 17.026 8.98799 17.16L8.61499 18.667C8.56199 18.907 8.41499 18.974 8.17499 18.854C6.49499 18.067 5.45499 15.654 5.45499 13.681C5.45499 9.48099 8.52199 5.62799 14.282 5.62799C18.895 5.62799 22.509 8.90799 22.509 13.321C22.509 17.921 19.602 21.614 15.576 21.614C14.243 21.614 12.963 20.907 12.536 20.081L11.696 23.241C11.265 24.578 10.704 25.739 10.008 26.804L10.042 26.748C11.212 27.12 12.558 27.335 13.953 27.335C21.317 27.335 27.286 21.365 27.286 14.002C27.286 6.65499 21.344 0.695992 14.004 0.668992H14.001L14 0.666992Z"></path>
  </symbol>
  <symbol  xmlns="http://www.w3.org/2000/svg" viewBox="0 0 17 28" id="facebook">
    <path d="M5.04 27.333L5 15.666H0V10.666H5V7.33302C5 2.84002 7.787 0.666016 11.8 0.666016C13.72 0.666016 15.373 0.799016 15.853 0.866016V5.57302H13.066C10.893 5.57302 10.466 6.61302 10.466 8.13302V10.666H16.666L14.999 15.666H10.466V27.333H5.039H5.04Z"></path>
  </symbol>
  <symbol  xmlns="http://www.w3.org/2000/svg" viewBox="0 0 28 28" id="inst">
    <path d="M15.36 0.666992C17.76 0.666992 18.267 0.693992 19.493 0.746992C20.906 0.813992 21.88 1.03999 22.72 1.37399C23.6 1.70699 24.347 2.17399 25.08 2.90699C25.827 3.63999 26.28 4.38699 26.627 5.26699C26.96 6.10699 27.174 7.07999 27.24 8.50699C27.307 9.77399 27.32 10.267 27.32 12.934V15.067C27.32 17.734 27.307 18.227 27.24 19.494C27.217 20.659 26.994 21.764 26.604 22.788L26.626 22.721C26.279 23.601 25.826 24.348 25.093 25.081C24.346 25.828 23.6 26.281 22.72 26.628C21.88 26.961 20.907 27.175 19.493 27.241C18.226 27.308 17.72 27.321 15.053 27.321H12.933C10.266 27.321 9.77296 27.308 8.49296 27.241C7.32796 27.218 6.22296 26.995 5.19896 26.605L5.26596 26.627C4.34296 26.274 3.55596 25.753 2.90696 25.094L2.90596 25.093C2.23996 24.441 1.71396 23.649 1.37396 22.764L1.35896 22.719C0.991964 21.763 0.768964 20.657 0.745964 19.502V19.492C0.692964 18.45 0.662964 17.229 0.662964 16.002C0.662964 15.776 0.663964 15.55 0.665964 15.325V15.359V12.626C0.665964 10.226 0.692964 9.71899 0.745964 8.49299C0.812964 7.07999 1.03896 6.10599 1.35896 5.26599C1.70596 4.38599 2.15896 3.63899 2.90596 2.90599C3.55096 2.23899 4.33996 1.71599 5.22296 1.38699L5.26596 1.37299C6.22096 1.00199 7.32596 0.773992 8.48096 0.746992H8.49296C9.71996 0.693992 10.226 0.666992 12.626 0.666992H15.36ZM15.387 3.06699H12.6C10.293 3.06699 9.79996 3.09399 8.59996 3.14699C7.30696 3.19999 6.59996 3.41399 6.13296 3.59999C5.50596 3.83999 5.06596 4.13299 4.59996 4.59999C4.13396 5.06699 3.83996 5.50699 3.59996 6.13299C3.42696 6.59999 3.19996 7.30599 3.14696 8.61299C3.09396 9.81299 3.06696 10.293 3.06696 12.613V15.386C3.06696 17.706 3.09396 18.186 3.14696 19.386C3.19996 20.679 3.41396 21.386 3.59996 21.853C3.83996 22.48 4.13296 22.92 4.59996 23.386C5.06696 23.852 5.50696 24.146 6.13296 24.386C6.59996 24.573 7.30596 24.786 8.61296 24.839C9.90596 24.906 10.373 24.919 13.253 24.919H14.733C17.626 24.919 18.08 24.906 19.386 24.839C20.679 24.786 21.386 24.572 21.853 24.386C22.48 24.146 22.92 23.853 23.386 23.386C23.852 22.919 24.146 22.479 24.386 21.853C24.573 21.386 24.786 20.68 24.839 19.386C24.906 18.079 24.919 17.626 24.919 14.733V13.266C24.919 10.373 24.906 9.90599 24.839 8.59899C24.786 7.30599 24.572 6.59899 24.386 6.13199C24.16 5.53099 23.819 5.01799 23.387 4.59999L23.386 4.59899C22.966 4.16599 22.454 3.82499 21.881 3.60799L21.853 3.59899C21.121 3.32299 20.275 3.15799 19.391 3.14599H19.386C18.358 3.09399 17.155 3.06399 15.944 3.06399C15.748 3.06399 15.552 3.06499 15.356 3.06599H15.386L15.387 3.06699ZM14 7.14699C17.781 7.14699 20.847 10.212 20.847 13.994C20.847 17.776 17.782 20.841 14 20.841C10.219 20.841 7.15296 17.776 7.15296 13.994C7.15296 10.212 10.218 7.14699 14 7.14699ZM14 9.54699C11.544 9.54699 9.55296 11.538 9.55296 13.994C9.55296 16.45 11.544 18.441 14 18.441C16.456 18.441 18.447 16.45 18.447 13.994C18.447 11.538 16.456 9.54699 14 9.54699ZM21.107 5.27999C21.991 5.27999 22.707 5.99599 22.707 6.87999C22.707 7.76399 21.991 8.47999 21.107 8.47999C20.223 8.47999 19.507 7.76399 19.507 6.87999C19.507 5.99599 20.223 5.27999 21.107 5.27999Z"></path>
  </symbol>
  <symbol xmlns="http://www.w3.org/2000/svg" viewBox="0 0 28 22" id="twit">
    <path d="M27.333 2.83998C26.333 3.33298 25.333 3.50698 24.16 3.66698C25.333 2.99998 26.16 1.99998 26.493 0.666984C25.488 1.27498 24.317 1.73798 23.07 1.98898L23 2.00098C21.969 0.986984 20.56 0.354984 19.004 0.333984H19C16.16 0.333984 13.667 2.84098 13.667 5.84098C13.667 6.33398 13.667 6.66798 13.84 7.00098C9.26197 6.82298 5.22097 4.66398 2.52897 1.36198L2.50697 1.33398C2.08197 2.05998 1.83097 2.93198 1.83097 3.86298C1.83097 3.97198 1.83397 4.08098 1.84097 4.18898L1.83997 4.17398C1.87397 6.05198 2.84897 7.69498 4.31297 8.65498L4.33397 8.66798C3.49397 8.66798 2.66697 8.33498 1.82697 8.00098C1.82697 10.668 3.66697 12.841 6.15997 13.334C5.66697 13.507 5.15997 13.507 4.66697 13.507C4.33397 13.507 3.99997 13.507 3.66697 13.334C4.33397 15.507 6.33397 17.174 8.83997 17.174C7.03997 18.629 4.72397 19.509 2.20297 19.509C2.13197 19.509 2.06097 19.508 1.98997 19.507H2.00097H0.667969C3.03297 21.016 5.90397 21.936 8.98397 22H9.00097C19.001 22 24.508 13.667 24.508 6.49298V5.82598C25.655 5.03598 26.601 4.03898 27.311 2.88198L27.335 2.83998H27.333Z"></path>
  </symbol>
    <symbol xmlns="http://www.w3.org/2000/svg" viewBox="0 0 45 45" id="sun">
    <path d="M22.5 16.8821C23.6125 16.8821 24.7001 17.212 25.6251 17.8301C26.5501 18.4481 27.2711 19.3267 27.6968 20.3545C28.1226 21.3823 28.234 22.5133 28.0169 23.6045C27.7999 24.6956 27.2641 25.6979 26.4775 26.4846C25.6908 27.2712 24.6885 27.807 23.5974 28.024C22.5062 28.241 21.3752 28.1296 20.3474 27.7039C19.3196 27.2782 18.4411 26.5572 17.823 25.6322C17.2049 24.7071 16.875 23.6196 16.875 22.5071C16.8769 21.0158 17.4701 19.5861 18.5246 18.5317C19.5791 17.4772 21.0087 16.8839 22.5 16.8821ZM22.5 14.0696C20.8312 14.0696 19.1999 14.5644 17.8124 15.4916C16.4248 16.4187 15.3434 17.7364 14.7048 19.2782C14.0662 20.8199 13.8991 22.5164 14.2246 24.1532C14.5502 25.7899 15.3538 27.2933 16.5338 28.4733C17.7138 29.6533 19.2172 30.4569 20.8539 30.7825C22.4906 31.108 24.1871 30.9409 25.7289 30.3023C27.2706 29.6637 28.5884 28.5822 29.5155 27.1947C30.4427 25.8072 30.9375 24.1759 30.9375 22.5071C30.9375 20.2693 30.0486 18.1232 28.4662 16.5409C26.8839 14.9585 24.7378 14.0696 22.5 14.0696Z"></path>
    <path d="M7.58521 9.58066L9.57364 7.59082L14.504 12.5211L12.5155 14.5096L7.58521 9.58066Z" ></path>
    <path d="M2.8125 21.1008H9.84375V23.9133H2.8125V21.1008Z" ></path>
    <path d="M7.58521 35.4332L12.5155 30.5029L14.504 32.4928L9.57364 37.4217L7.58521 35.4332Z"></path>
    <path d="M21.0938 35.1633H23.9062V42.1946H21.0938V35.1633Z" ></path>
    <path d="M30.4973 32.4928L32.4858 30.5029L37.4161 35.4332L35.4276 37.4217L30.4973 32.4928Z"></path>
    <path d="M35.1562 21.1008H42.1875V23.9133H35.1562V21.1008Z" ></path>
    <path d="M30.4973 12.5211L35.4276 7.59082L37.4161 9.58066L32.4858 14.5096L30.4973 12.5211Z"></path>
    <path d="M21.0938 2.81958H23.9062V9.85083H21.0938V2.81958Z" ></path>
  </symbol>
  <symbol xmlns="http://www.w3.org/2000/svg" viewBox="0 0 41 40" id="moon">
    <path d="M21.4528 40C15.7066 40 10.315 37.8174 6.27098 33.8545C2.22701 29.8915 5.02421e-07 24.6074 5.02421e-07 18.9761C-0.00085731 15.0913 1.09674 11.2823 3.17098 7.97181C5.24521 4.66132 8.21494 1.97886 11.7505 0.222165C12.1143 0.0404498 12.5246 -0.032245 12.9302 0.0131555C13.3359 0.058556 13.7189 0.220041 14.0315 0.477451C14.344 0.734861 14.5723 1.07679 14.6878 1.46057C14.8033 1.84434 14.8009 2.25294 14.6809 2.63538C13.672 5.82896 13.5728 9.23201 14.3941 12.4768C15.2154 15.7216 16.9259 18.6847 19.3408 21.046C21.0739 22.757 23.136 24.1141 25.4078 25.0388C27.6796 25.9635 30.116 26.4374 32.576 26.433C34.4579 26.4345 36.3292 26.1578 38.1269 25.6125C38.5172 25.4948 38.9342 25.4924 39.3258 25.6056C39.7175 25.7188 40.0665 25.9425 40.3291 26.2488C40.5918 26.5552 40.7566 26.9306 40.8029 27.3282C40.8492 27.7257 40.775 28.1279 40.5895 28.4843C38.7969 31.9492 36.0597 34.8596 32.6817 36.8923C29.3036 38.9251 25.4169 40.0008 21.4528 40ZM11.6763 3.31431C8.93463 4.94908 6.66986 7.24958 5.10105 9.99327C3.53225 12.737 2.71252 15.831 2.72115 18.9761C2.72115 29.0982 11.1241 37.3333 21.4528 37.3333C24.6621 37.3418 27.8193 36.5384 30.619 35.001C33.4187 33.4636 35.7662 31.2441 37.4343 28.5573C35.8413 28.9186 34.2113 29.1007 32.5762 29.1C29.7587 29.1053 26.9682 28.5628 24.3661 27.5041C21.764 26.4453 19.4021 24.8913 17.417 22.9319C14.8382 20.4094 12.9578 17.2845 11.9533 13.8522C10.9489 10.4199 10.8536 6.79329 11.6763 3.31481V3.31431Z"></path>
  </symbol>

</svg>